<?xml version="1.0" ?><!DOCTYPE svg  PUBLIC '-//W3C//DTD SVG 1.1//EN'  'http://www.w3.org/Graphics/SVG/1.1/DTD/svg11.dtd'><svg height="100%" stroke="rgb(163, 163, 163)" style="fill-rule:evenodd;clip-rule:evenodd;stroke-linejoin:round;stroke-miterlimit:2;" version="1.1" viewBox="0 0 24 24" width="100%" xml:space="preserve" xmlns="http://www.w3.org/2000/svg" xmlns:serif="http://www.serif.com/" xmlns:xlink="http://www.w3.org/1999/xlink"><g id="Icon"><path d="M7,2.25l10,0c1.26,-0 2.468,0.5 3.359,1.391c0.891,0.891 1.391,2.099 1.391,3.359l-0,10c0,1.26 -0.5,2.468 -1.391,3.359c-0.891,0.891 -2.099,1.391 -3.359,1.391l-10,-0c-1.26,0 -2.468,-0.5 -3.359,-1.391c-0.891,-0.891 -1.391,-2.099 -1.391,-3.359l0,-10c-0,-1.26 0.5,-2.468 1.391,-3.359c0.891,-0.891 2.099,-1.391 3.359,-1.391Zm2.25,1.5l0,16.5l7.75,0c0.862,0 1.689,-0.342 2.298,-0.952c0.61,-0.609 0.952,-1.436 0.952,-2.298l0,-10c0,-0.862 -0.342,-1.689 -0.952,-2.298c-0.609,-0.61 -1.436,-0.952 -2.298,-0.952l-7.75,-0Zm-1.5,-0l-0.75,-0c-0.862,-0 -1.689,0.342 -2.298,0.952c-0.61,0.609 -0.952,1.436 -0.952,2.298l-0,10c-0,0.862 0.342,1.689 0.952,2.298c0.609,0.61 1.436,0.952 2.298,0.952l0.75,0l0,-16.5Z"/></g></svg>